#!OML:ASF I:\Actors\actors\Patient Classification 2\Patient 1\Session 1\actor1.ASF
:FULLY-SPECIFIED
:DEGREES
294
root -0.557913 18.776 4.80895 4.82721 3.85262 -1.92328
lowerback 3.56745 3.48273 -3.62844
upperback -2.79609 4.32253 -2.74874
thorax -4.95376 2.21765 -1.16222
lowerneck -14.2971 -5.91826 -4.55354
upperneck 22.5691 -9.56071 9.48241
head 10.2643 -3.74902 2.82685
rclavicle 5.19822e-014 -4.29375e-014
rhumerus 9.92841 27.0192 -44.6189
rradius 94.9627
rwrist 34.5069
rhand -38.333 -39.2239
rfingers 7.12502
rthumb -11.3605 -68.8962
lclavicle 5.19822e-014 -4.29375e-014
lhumerus -40.6424 -35.2064 93.8897
lradius 123.045
lwrist 41.8086
lhand -17.7855 -21.7288
lfingers 7.12502
lthumb 8.47733 8.08103
rfemur 0 0 0
rtibia 0
rfoot 0 0
rtoes 0
lfemur -9.97106 -7.53635 -12.3559
ltibia 23.1019
lfoot -20.2523 7.60792
ltoes -55.1204
295
root -0.560076 18.7736 4.81609 4.79528 4.23189 -1.92332
lowerback 3.62366 3.3363 -3.62689
upperback -2.81717 4.12185 -2.77831
thorax -5.00329 2.11797 -1.18183
lowerneck -14.2901 -5.9124 -4.71683
upperneck 22.6686 -9.56056 9.62788
head 10.3156 -3.74405 2.90729
rclavicle -4.33848e-014 1.90833e-014
rhumerus 9.08634 25.3047 -44.4927
rradius 94.5005
rwrist 34.1031
rhand -37.9601 -39.6956
rfingers 7.12502
rthumb -11.0008 -69.3874
lclavicle -4.33848e-014 1.90833e-014
lhumerus -40.8234 -35.0405 93.7767
lradius 123.228
lwrist 41.7559
lhand -17.7489 -21.6341
lfingers 7.12502
lthumb 8.51262 8.17428
rfemur 0 0 0
rtibia 0
rfoot 0 0
rtoes 0
lfemur -10.0265 -7.63469 -12.2917
ltibia 23.1184
lfoot -20.1001 7.23396
ltoes -55.1191
296
root -0.562428 18.7712 4.8221 4.72292 4.54797 -1.94659
lowerback 3.73204 3.21705 -3.64021
upperback -2.82169 3.95444 -2.80025
thorax -5.0674 2.03527 -1.1905
lowerneck -14.259 -5.89591 -4.87651
upperneck 22.6927 -9.55239 9.82463
head 10.3372 -3.7325 3.00649
rclavicle 3.04141e-014 -1.11319e-014
rhumerus 8.72214 23.4664 -44.0406
rradius 94.0698
rwrist 33.8276
rhand -37.6775 -40.2411
rfingers 7.12502
rthumb -10.7282 -69.9472
lclavicle 3.04141e-014 -1.11319e-014
lhumerus -40.9243 -34.8216 93.6287
lradius 123.312
lwrist 41.4011
lhand -17.6709 -21.6081
lfingers 7.12502
lthumb 8.5879 8.19728
rfemur 0 0 0
rtibia 0
rfoot 0 0
rtoes 0
lfemur -10.0235 -7.68099 -12.2151
ltibia 23.1312
lfoot -19.9831 6.89622
ltoes -55.1806
297
root -0.564401 18.769 4.82755 4.64849 4.79419 -2.01084
lowerback 3.81187 3.13427 -3.68165
upperback -2.80349 3.83845 -2.77646
thorax -5.09708 1.97954 -1.13742
lowerneck -14.2564 -5.88247 -4.97629
upperneck 22.6996 -9.53654 9.92864
head 10.349 -3.72215 3.06288
rclavicle -7.81721e-014 1.59028e-014
rhumerus 8.76005 21.5271 -43.3867
rradius 93.6004
rwrist 34.0717
rhand -37.2008 -40.6967
rfingers 7.12502
rthumb -10.2683 -70.4261
lclavicle -7.81721e-014 1.59028e-014
lhumerus -40.9366 -34.6236 93.5571
lradius 123.314
lwrist 41.0453
lhand -17.5839 -21.6813
lfingers 7.12502
lthumb 8.67192 8.12054
rfemur 0 0 0
rtibia 0
rfoot 0 0
rtoes 0
lfemur -10.0029 -7.68288 -12.1057
ltibia 23.147
lfoot -19.9341 6.61048
ltoes -55.2558
298
root -0.565535 18.7676 4.83184 4.59103 5.0035 -2.05182
lowerback 3.89898 3.08168 -3.76843
upperback -2.79299 3.75883 -2.75978
thorax -5.14192 1.94341 -1.07041
lowerneck -14.2982 -5.90716 -4.97133
upperneck 22.7454 -9.56746 9.89294
head 10.3741 -3.73719 3.04439
rclavicle -7.4097e-014 5.56597e-014
rhumerus 9.13612 19.4073 -42.6699
rradius 93.029
rwrist 34.3446
rhand -37.3471 -40.9977
rfingers 7.12502
rthumb -10.4095 -70.7201
lclavicle -7.4097e-014 5.56597e-014
lhumerus -40.9286 -34.5488 93.5708
lradius 123.276
lwrist 40.9673
lhand -17.5013 -21.839
lfingers 7.12502
lthumb 8.75156 7.95953
rfemur 0 0 0
rtibia 0
rfoot 0 0
rtoes 0
lfemur -9.9968 -7.70615 -12.0359
ltibia 23.1683
lfoot -19.8702 6.39866
ltoes -55.256
299
root -0.5671 18.767 4.83446 4.55058 5.20306 -2.09891
lowerback 4.02089 3.0897 -3.78559
upperback -2.80551 3.75781 -2.82488
thorax -5.22147 1.94265 -1.13653
lowerneck -14.2726 -5.99803 -4.94747
upperneck 22.7289 -9.71952 9.9608
head 10.3798 -3.79867 3.04275
rclavicle 4.86029e-014 2.38542e-014
rhumerus 9.68207 17.2447 -41.9905
rradius 92.7332
rwrist 33.3288
rhand -37.0732 -41.5135
rfingers 7.12502
rthumb -10.1453 -71.2489
lclavicle 4.86029e-014 2.38542e-014
lhumerus -40.9245 -34.7228 93.5805
lradius 123.285
lwrist 41.0789
lhand -17.4142 -21.8673
lfingers 7.12502
lthumb 8.83564 7.92778
rfemur 0 0 0
rtibia 0
rfoot 0 0
rtoes 0
lfemur -10.0131 -7.80704 -11.9652
ltibia 23.1972
lfoot -19.8317 6.28933
ltoes -55.2371
300
root -0.569938 18.7673 4.83569 4.52841 5.37694 -2.16998
lowerback 4.13484 3.15712 -3.75758
upperback -2.82486 3.83725 -2.93252
thorax -5.29858 1.97936 -1.27889
lowerneck -14.1758 -6.14321 -5.02547
upperneck 22.6818 -9.97968 10.2486
head 10.3895 -3.89725 3.12228
rclavicle 1.14798e-014 -1.59028e-015
rhumerus 10.4216 14.9074 -41.3737
rradius 92.1464
rwrist 33.1022
rhand -37.3578 -41.207
rfingers 7.12502
rthumb -10.4198 -70.9288
lclavicle 1.14798e-014 -1.59028e-015
lhumerus -40.8461 -35.0804 93.5771
lradius 123.319
lwrist 41.2221
lhand -17.3275 -21.7696
lfingers 7.12502
lthumb 8.91934 8.02189
rfemur 0 0 0
rtibia 0
rfoot 0 0
rtoes 0
lfemur -10.049 -7.99108 -11.8669
ltibia 23.2341
lfoot -19.849 6.28263
ltoes -55.2648
301
root -0.573827 18.7684 4.83436 4.52752 5.51416 -2.26919
lowerback 4.21509 3.21848 -3.75802
upperback -2.8357 3.91073 -3.00181
thorax -5.35181 2.01463 -1.36301
lowerneck -14.094 -6.26573 -5.1344
upperneck 22.6614 -10.211 10.5683
head 10.414 -3.98051 3.2227
rclavicle -7.61345e-014 2.70347e-014
rhumerus 11.5334 12.7423 -40.8118
rradius 91.6325
rwrist 32.4822
rhand -37.574 -41.4869
rfingers 7.12502
rthumb -10.6284 -71.1981
lclavicle -7.61345e-014 2.70347e-014
lhumerus -40.6716 -35.3533 93.5738
lradius 123.323
lwrist 41.258
lhand -17.2865 -21.7448
lfingers 7.12502
lthumb 8.9589 8.04498
rfemur 0 0 0
rtibia 0
rfoot 0 0
rtoes 0
lfemur -10.1138 -8.20502 -11.7307
ltibia 23.2781
lfoot -19.877 6.33544
ltoes -55.324
302
root -0.577993 18.7693 4.83165 4.52406 5.61743 -2.41094
lowerback 4.28768 3.27508 -3.73098
upperback -2.82645 3.98187 -3.05035
thorax -5.37879 2.04786 -1.43923
lowerneck -13.9405 -6.37316 -4.98697
upperneck 22.4468 -10.3878 10.6017
head 10.3175 -4.058 3.18458
rclavicle 7.32025e-014 -3.65764e-014
rhumerus 12.9774 10.7495 -40.3399
rradius 91.0785
rwrist 32.2523
rhand -37.5785 -42.337
rfingers 7.12502
rthumb -10.6328 -72.048
lclavicle 7.32025e-014 -3.65764e-014
lhumerus -40.4185 -35.5409 93.5312
lradius 123.299
lwrist 41.2167
lhand -17.252 -21.7999
lfingers 7.12502
lthumb 8.99216 7.98845
rfemur 0 0 0
rtibia 0
rfoot 0 0
rtoes 0
lfemur -10.1806 -8.34497 -11.5471
ltibia 23.3206
lfoot -19.912 6.36381
ltoes -55.3105
303
root -0.58241 18.7708 4.82812 4.52444 5.67575 -2.54673
lowerback 4.40392 3.36514 -3.70169
upperback -2.82343 4.09456 -3.10805
thorax -5.43645 2.10142 -1.53363
lowerneck -13.8226 -6.51864 -4.83995
upperneck 22.2141 -10.6136 10.6303
head 10.2258 -4.15848 3.13697
rclavicle -2.80783e-014 2.06736e-014
rhumerus 14.6389 8.83611 -39.9362
rradius 90.5516
rwrist 32.3143
rhand -37.1299 -43.324
rfingers 7.12502
rthumb -10.1999 -73.0567
lclavicle -2.80783e-014 2.06736e-014
lhumerus -40.0958 -35.7574 93.4627
lradius 123.233
lwrist 41.1931
lhand -17.1286 -21.8406
lfingers 7.12502
lthumb 9.11129 7.94255
rfemur 0 0 0
rtibia 0
rfoot 0 0
rtoes 0
lfemur -10.2471 -8.38368 -11.3767
ltibia 23.355
lfoot -19.9137 6.39757
ltoes -55.2627
304
root -0.587133 18.7738 4.82241 4.53914 5.66169 -2.63332
lowerback 4.55258 3.48348 -3.72103
upperback -2.82808 4.2386 -3.18002
thorax -5.52321 2.17196 -1.62225
lowerneck -13.9588 -6.6511 -5.12381
upperneck 22.3243 -10.8784 11.1458
head 10.3684 -4.23807 3.32699
rclavicle -6.77856e-014 4.77083e-015
rhumerus 16.4979 7.11468 -39.6352
rradius 89.9548
rwrist 32.3244
rhand -36.7792 -43.7028
rfingers 7.12502
rthumb -9.86165 -73.4518
lclavicle -6.77856e-014 4.77083e-015
lhumerus -39.7734 -35.9744 93.3966
lradius 123.171
lwrist 41.1848
lhand -17.0349 -21.8708
lfingers 7.12502
lthumb 9.20164 7.90841
rfemur 0 0 0
rtibia 0
rfoot 0 0
rtoes 0
lfemur -10.3097 -8.40718 -11.27
ltibia 23.38
lfoot -19.9015 6.53727
ltoes -55.3535
305
root -0.591468 18.7761 4.81584 4.54833 5.5852 -2.70103
lowerback 4.71634 3.61559 -3.6909
upperback -2.83235 4.40136 -3.29664
thorax -5.61057 2.24896 -1.78814
lowerneck -14.0625 -6.73526 -5.33778
upperneck 22.3806 -11.0834 11.6499
head 10.4774 -4.28824 3.5112
rclavicle -4.1049e-014 3.02153e-014
rhumerus 18.5371 5.74133 -39.4695
rradius 89.2682
rwrist 32.2091
rhand -36.6092 -43.9028
rfingers 7.12502
rthumb -9.69762 -73.6596
lclavicle -4.1049e-014 3.02153e-014
lhumerus -39.4596 -36.1949 93.2594
lradius 123.143
lwrist 41.2137
lhand -17.0843 -21.8406
lfingers 7.12502
lthumb 9.15396 7.94077
rfemur 0 0 0
rtibia 0
rfoot 0 0
rtoes 0
lfemur -10.3335 -8.48403 -11.1964
ltibia 23.3937
lfoot -19.955 6.75005
ltoes -55.459
